{"title":"Revelation Road 2 The Sea of Glass and Fire 2013 BRRip 480p x264","uid":8924527,"size":320515309,"categoryP":"video","categoryS":"movies","magnet":"?xt=urn:btih:e16f590adc468890027ee6a9f0d5c0d16971b07a&amp;dn=Revelation+Road+2+The+Sea+of+Glass+and+Fire+2013+BRRip+480p+x264&amp;tr=udp%3A%2F%2Ftracker.openbittorrent.com%3A80&amp;tr=udp%3A%2F%2Fopen.demonii.com%3A1337&amp;tr=udp%3A%2F%2Ftracker.coppersurfer.tk%3A6969&amp;tr=udp%3A%2F%2Fexodus.desync.com%3A6969","seeders":0,"leechers":1,"uploader":"ValidusVyto","files":-1,"time":1379290682,"description":"_______ Visit us at our Semi Public Bittorrent Community ________\n  &lt;a href=&quot;\nhttp://p2pdl.com&quot; rel=&quot;nofollow&quot; target=&quot;_NEW&quot;&gt;\nhttp://p2pdl.com&lt;/a&gt;  _____________________________ &lt;a href=&quot; http://p2pdl.com&quot; rel=&quot;nofollow&quot; target=&quot;_NEW&quot;&gt; http://p2pdl.com&lt;/a&gt;\n\n\nRevelation Road 2 The Sea of Glass and Fire 2013 BRRip 480p x264 AAC - VYTO\n\n\nGenre: Action \nPlot: ROAD 2: THE SEA OF GLASS AND FIRE picks up where the \nfirst film in the series ends. After the rapture has taken \nplace, JOSH MCMANUS (David A. R. White) is left behind \nand goes on a journey to find out what has happened and \nattempts to travel home to find his family. Before he can \ngo anywhere, he is confronted again by the biker gang \nthat harassed him previously and he joins forces with a \nyoung girl whose family has been taken up into the sky \nby God along with other believers. Chasing Josh at every \nturn is the brutal outlaw HAWG (Brian Bosworth) and \nhis rolling gang of killers. On the day after the \nBiblical rapture, law and order have broken down - the \nhighways have become a no-mans-land of bandits and \nlooters. Josh's world has been shaken to the core, \nand he must make a choice, embrace his past as a man \nof violence, or learn a new path and become a man of \nfaith. Which will he choose?\nDirector: Gabriel Sabloff\nStars:  David A.R. White, Brian Bosworth, Logan White\n\nInfo: &lt;a href=&quot;\nhttp://www.imdb.com/title/tt2825924/&quot; rel=&quot;nofollow&quot; target=&quot;_NEW&quot;&gt;\nhttp://www.imdb.com/title/tt2825924/&lt;/a&gt;\n\nGeneral\nFormat                         : MPEG-4\nFile size                      : 301 MiB\nDuration                       : 1h 31mn\nOverall bit rate mode          : Variable\nOverall bit rate               : 462 Kbps\n\nVideo\nFormat                         : AVC\nBit rate                       : 419 Kbps\nWidth                          : 720 pixels\nHeight                         : 400 pixels\nDisplay aspect ratio           : 16:9\nFrame rate mode                : Constant\nFrame rate                     : 23.976 fps\nBit depth                      : 10 bits\nStream size                    : 273 MiB (91%)\nWriting library                : x264 core 138 r2358 9e941d1\n\n\nAudio\nFormat                         : AAC\nBit rate                       : 40.0 Kbps\nChannel(s)                     : 2 channels\nChannel positions              : Front: L R\nSampling rate                  : 48.0 KHz / 24.0 KHz\nStream size                    : 26.0 MiB (9%)\n\nSubtitle                       : No\n\nSource                         : 720p.BluRay.x264-UNTOUCHABLES\n &lt;a href=&quot;\nhttp://ultraimg.com/images/ruIeJ.png&quot; rel=&quot;nofollow&quot; target=&quot;_NEW&quot;&gt;\nhttp://ultraimg.com/images/ruIeJ.png&lt;/a&gt; &lt;a href=&quot;\nhttp://ultraimg.com/images/W6GmV.png&quot; rel=&quot;nofollow&quot; target=&quot;_NEW&quot;&gt;\nhttp://ultraimg.com/images/W6GmV.png&lt;/a&gt; &lt;a href=&quot;\nhttp://ultraimg.com/images/Y32OK.png&quot; rel=&quot;nofollow&quot; target=&quot;_NEW&quot;&gt;\nhttp://ultraimg.com/images/Y32OK.png&lt;/a&gt; &lt;a href=&quot;\nhttp://ultraimg.com/images/EhJVA.png&quot; rel=&quot;nofollow&quot; target=&quot;_NEW&quot;&gt;\nhttp://ultraimg.com/images/EhJVA.png&lt;/a&gt;\n\n----------------------------------------------------------------------------------------------------\n\n\nEncoded using revolutionary 10bit encoding, which enables us to provide you more crispier \nand sharper images at small sizes, just make sure you follow our instructions without a fault.\nRecommend to you to use latest version of VLC player. Install K-Lite Codec Pack or shark007 codecs\nin case of any kind of problem in playback (For non-VLC Media Player users). Alternatively, install\nCore AVC codecs, the fastest decoder that there is coupled with Community Center Codec Pack and play\non Windows Media Player Classic. Check sample to be sure.\nEnjoy!\n\nEncoder Notes:Looking For Early Access To Anything You Can Provide DVDScr, R5, DVDR, BluRay, Direct\nAudio, Music Releases and Seedboxes. We require dedicated servers, so as to do more \nand fast releases of movies.\nIf You Got anything to offer please contact us at &quot;&lt;a class=&quot;__cf_email__&quot; href=&quot;/cdn-cgi/l/email-protection&quot; data-cfemail=&quot;f4848693b49c81879cda979b99&quot;&gt;[email&amp;#160;protected]&lt;/a&gt;&lt;script cf-hash='f9e31' type=&quot;text/javascript&quot;&gt;\n/* &lt;![CDATA[ */!function(){try{var t=&quot;currentScript&quot;in document?document.currentScript:function(){for(var t=document.getElementsByTagName(&quot;script&quot;),e=t.length;e--;)if(t[e].getAttribute(&quot;cf-hash&quot;))return t[e]}();if(t&amp;&amp;t.previousSibling){var e,r,n,i,c=t.previousSibling,a=c.getAttribute(&quot;data-cfemail&quot;);if(a){for(e=&quot;&quot;,r=parseInt(a.substr(0,2),16),n=2;a.length-n;n+=2)i=parseInt(a.substr(n,2),16)^r,e+=String.fromCharCode(i);e=document.createTextNode(e),c.parentNode.replaceChild(e,c)}}}catch(u){}}();/* ]]&gt; */&lt;/script&gt;&quot;.\n\nFacebook Fan Page:  \nSearch P2PDL on FB and hit like!!!\n\nFor more of our team uploads visit @                                             &lt;a href=&quot;\nhttp://thepiratebay.se/user/vitamin_x&quot; rel=&quot;nofollow&quot; target=&quot;_NEW&quot;&gt;\nhttp://thepiratebay.se/user/vitamin_x&lt;/a&gt;\t","torrent":{"xt":"urn:btih:e16f590adc468890027ee6a9f0d5c0d16971b07a","amp;dn":"Revelation+Road+2+The+Sea+of+Glass+and+Fire+2013+BRRip+480p+x264","amp;tr":["udp%3A%2F%2Ftracker.openbittorrent.com%3A80","udp%3A%2F%2Fopen.demonii.com%3A1337","udp%3A%2F%2Ftracker.coppersurfer.tk%3A6969","udp%3A%2F%2Fexodus.desync.com%3A6969"],"infoHash":"e16f590adc468890027ee6a9f0d5c0d16971b07a","infoHashBuffer":{"type":"Buffer","data":[225,111,89,10,220,70,136,144,2,126,230,169,240,213,192,209,105,113,176,122]},"announce":[],"urlList":[]}}